<svg xmlns="http://www.w3.org/2000/svg" viewBox="0 0 53.47 48.09"><defs><style>.cls-1{fill:#77ade0;}</style></defs><title>Asset 20</title><g id="Layer_2" data-name="Layer 2"><g id="_8_-_Icons" data-name="8 - Icons"><path class="cls-1" d="M48.44,24.12a6.41,6.41,0,0,0-6-8.64,6.31,6.31,0,0,0-3.21.87A11,11,0,0,0,32.87,9h0a6.55,6.55,0,0,0-9.59-5.79A8.05,8.05,0,0,0,8.79,8.06a7.61,7.61,0,0,0,.07,1A10.31,10.31,0,0,0,7.64,29.28,9.34,9.34,0,0,0,17,38.57h3.17a.81.81,0,0,0,0-1.62H17a7.71,7.71,0,1,1,0-15.41,8,8,0,0,1,1.58.17.79.79,0,0,0,.73-.21.82.82,0,0,0,.23-.73,9.29,9.29,0,1,1,18.34-2.91.79.79,0,0,0,.53.65.78.78,0,0,0,.82-.16,4.79,4.79,0,0,1,7.39,5.91.84.84,0,0,0,0,.74.83.83,0,0,0,.59.45A5.8,5.8,0,0,1,46.05,37H41a.81.81,0,0,0,0,1.62h5a7.42,7.42,0,0,0,2.39-14.45ZM17.73,19.06c0,.3,0,.6,0,.9a9.28,9.28,0,0,0-10,7.69,8.7,8.7,0,0,1,2.08-17,.79.79,0,0,0,.6-.32.8.8,0,0,0,.14-.68,6.2,6.2,0,0,1-.2-1.57A6.43,6.43,0,0,1,22.35,4.74a.8.8,0,0,0,.52.37A.81.81,0,0,0,23.51,5a4.82,4.82,0,0,1,2.82-.89,4.92,4.92,0,0,1,4.88,4.37,10.86,10.86,0,0,0-13.48,10.6Z"/><path class="cls-1" d="M26.39,27.71s0,0,0,0a.84.84,0,0,0-.57-.23.85.85,0,0,0-.57.24l-3.75,3.75a.81.81,0,1,0,1.15,1.14L25,30.24v17a.81.81,0,0,0,1.62,0v-17L29,32.6a.81.81,0,0,0,1.15-1.14Z"/><path class="cls-1" d="M38.51,43l-2.37,2.36v-17a.81.81,0,1,0-1.62,0v17L32.16,43A.81.81,0,0,0,31,44.1l3.75,3.75.08,0A.57.57,0,0,0,35,48a.87.87,0,0,0,.31.07h.05a.76.76,0,0,0,.26-.06.71.71,0,0,0,.27-.18l3.74-3.74A.81.81,0,0,0,38.51,43Z"/></g></g></svg>