<?xml version="1.0" encoding="utf-8"?>
<!-- Generator: Adobe Illustrator 16.0.0, SVG Export Plug-In . SVG Version: 6.00 Build 0)  -->
<!DOCTYPE svg PUBLIC "-//W3C//DTD SVG 1.1//EN" "http://www.w3.org/Graphics/SVG/1.1/DTD/svg11.dtd">
<svg version="1.1" id="Layer_1" xmlns="http://www.w3.org/2000/svg" xmlns:xlink="http://www.w3.org/1999/xlink" x="0px" y="0px"
	 width="593.42px" height="595.28px" viewBox="0.93 123.305 593.42 595.28" enable-background="new 0.93 123.305 593.42 595.28"
	 xml:space="preserve">
<title>Asset 8</title>
<g id="Layer_2">
	<g id="Layer_1-2">
		<g id="_Group_">
			<g id="_Group_2">
				<g id="_Group_3">
					<path fill="#5497DA" d="M594.35,197.715H0.93v-74.41h593.42V197.715L594.35,197.715z M19.532,179.112h556.215v-37.205H19.532
						V179.112z"/>
				</g>
				<g id="_Group_4">
					<rect x="10.232" y="531.63" fill="#5497DA" width="37.205" height="18.603"/>
				</g>
				<g id="_Group_5">
					<rect x="529.241" y="531.63" fill="#5497DA" width="55.808" height="18.603"/>
				</g>
				<g id="_Group_6">
					<g id="_Group_7">
						<rect x="38.135" y="151.208" fill="#5497DA" width="18.603" height="18.603"/>
					</g>
					<g id="_Group_8">
						<rect x="75.34" y="151.208" fill="#5497DA" width="18.603" height="18.603"/>
					</g>
					<g id="_Group_9">
						<rect x="112.545" y="151.208" fill="#5497DA" width="18.603" height="18.603"/>
					</g>
				</g>
				<g id="_Group_10">
					<rect x="167.422" y="151.208" fill="#5497DA" width="389.723" height="18.603"/>
				</g>
				<g id="_Group_11">
					<rect x="547.844" y="207.946" fill="#5497DA" width="18.603" height="312.522"/>
				</g>
				<g id="_Group_12">
					<rect x="28.834" y="207.946" fill="#5497DA" width="18.603" height="312.522"/>
				</g>
				<g id="_Group_13">
					<polygon fill="#5497DA" points="594.35,586.508 519.94,586.508 519.94,567.905 575.747,567.905 575.747,197.715 
						19.532,197.715 19.532,567.905 47.437,567.905 47.437,586.508 0.93,586.508 0.93,179.112 594.35,179.112 					"/>
				</g>
			</g>
			<g id="_Group_14">
				<g id="_Group_15">
					<g id="_Group_16">
						<g id="_Group_17">
							<path fill="#5497DA" d="M418.556,573.485c-27.903,0-51.156-23.253-51.156-51.156c0-27.904,23.253-51.157,51.156-51.157
								c25.113,0,45.576,17.672,50.228,41.855l0,0c4.65,27.904-13.952,53.947-40.926,59.528
								C424.137,572.556,421.347,573.485,418.556,573.485z M418.556,489.774c-1.86,0-3.72,0-5.58,0.93
								c-17.673,3.721-28.834,20.463-26.044,38.136c2.79,17.672,20.463,28.834,38.135,26.043
								c17.673-3.721,28.834-20.463,26.044-38.135C447.39,500.006,433.438,489.774,418.556,489.774z"/>
						</g>
						<g id="_Group_18">
							<path fill="#5497DA" d="M424.137,624.643h-10.231c-12.092-0.93-24.184-2.79-35.345-8.371l-9.301-3.721l4.65-9.301
								c0.93-6.512-3.721-12.092-9.302-13.022c-2.79,0-5.58,0-7.44,0.931l-6.511,7.44l-6.512-7.44
								c-8.371-9.302-14.882-19.533-19.532-30.694l-3.721-9.302l9.302-2.79c5.58-3.721,6.511-11.161,2.79-15.812
								c-1.86-1.86-3.721-3.721-6.511-4.651l0,0h-10.231v-10.231c0-12.091,2.79-24.183,7.441-35.345l3.72-9.301l9.302,4.65
								c6.511,0.931,12.092-3.721,13.021-9.301c0-2.791,0-5.581-0.93-7.441l-7.441-6.511l7.441-6.511
								c9.301-8.371,19.532-14.882,30.693-19.533l9.302-3.72l2.79,9.301c1.86,3.721,7.441,5.581,11.162,4.65
								c5.58-0.93,9.301-4.65,9.301-8.371v-10.231h10.231c12.092,0,24.184,2.791,35.345,7.441l9.302,3.721l-4.651,9.301
								c-0.93,6.511,3.721,12.092,9.302,13.021c2.79,0,5.581,0,7.44-0.93l6.512-7.441l6.511,7.441
								c8.371,9.302,14.882,19.532,19.532,31.624l3.721,9.302l-9.302,2.79c-5.58,3.721-6.511,11.161-2.79,15.813
								c1.86,1.86,3.721,3.721,6.511,4.65l0,0h11.162v10.231c-0.931,12.092-2.791,24.184-8.371,35.345l-3.721,9.301l-9.302-4.65
								c-6.511-0.93-12.092,3.721-13.021,9.302c0,2.79,0,5.58,0.93,7.44l7.441,6.511l-7.441,6.512
								c-9.301,8.371-19.532,14.882-30.693,19.532l-9.302,3.721l-2.79-9.302c-1.86-3.721-7.441-5.58-11.162-4.65
								c-5.58,0.93-9.301,4.65-9.301,8.371V624.643z M393.443,601.39c4.65,1.86,9.302,2.79,13.952,2.79
								c7.441-15.813,26.043-22.323,40.926-14.882c2.79,0.93,5.58,2.79,8.371,5.581c4.65-1.86,8.371-4.651,12.092-7.441
								c-3.721-9.301-1.86-19.532,3.72-27.903c5.581-8.371,14.882-13.022,25.113-13.022c1.86-4.65,2.791-9.301,2.791-14.882
								c-9.302-4.65-14.882-12.092-16.742-22.323l0,0c-1.86-9.301,0.93-19.532,8.371-26.974c-1.86-4.65-4.65-8.371-7.441-12.091
								c-16.742,5.58-34.414-2.791-39.995-19.533c-0.93-2.79-1.86-5.581-1.86-9.301c-4.65-0.931-9.301-1.86-14.882-2.791
								c-7.441,15.813-26.044,22.323-41.855,14.882c-2.791-0.93-5.581-2.79-7.441-5.58c-4.65,1.86-8.371,4.65-12.092,7.44
								c5.581,16.742-2.79,34.415-19.532,39.996c-2.79,0.93-5.581,1.86-9.302,1.86c-0.93,4.65-1.86,9.301-2.79,13.951
								c9.302,3.721,15.813,13.022,16.742,22.323c1.86,9.302-1.86,19.532-8.371,26.974c1.86,4.65,4.65,8.371,8.371,12.092
								c16.742-5.581,34.415,2.79,39.995,19.532C392.513,594.879,393.443,598.599,393.443,601.39L393.443,601.39z"/>
						</g>
					</g>
					<g id="_Group_19">
						<rect x="409.255" y="513.027" fill="#5497DA" width="18.603" height="18.603"/>
					</g>
				</g>
				<g id="_Group_20">
					<g id="_Group_21">
						<g id="_Group_22">
							<path fill="#5497DA" d="M186.025,651.616c-36.274,0-65.108-28.834-65.108-65.108c0-36.275,28.834-65.109,65.108-65.109
								c36.275,0,65.109,28.834,65.109,65.109C251.134,622.782,222.3,651.616,186.025,651.616z M186.025,540.001
								c-26.043,0-46.506,20.463-46.506,46.507c0,26.043,20.463,46.506,46.506,46.506c26.044,0,46.507-20.463,46.507-46.506
								C232.531,561.394,212.069,540.932,186.025,540.001L186.025,540.001z"/>
						</g>
						<g id="_Group_23">
							<path fill="#5497DA" d="M204.627,718.585l-1.86-9.301c-1.859-7.441-9.301-12.092-16.742-11.162
								c-7.44-0.93-14.882,3.721-16.742,11.162l-0.93,9.301l-9.302-1.86c-15.812-3.72-30.693-10.231-43.716-18.603l-8.371-5.58
								l5.581-7.441c3.721-6.511,1.86-14.882-3.721-20.463c-4.65-5.58-13.021-7.44-19.532-3.721l-8.371,5.581l-5.581-8.371
								c-8.371-13.021-14.882-27.903-18.603-43.716l-1.86-9.302l9.302-1.859c9.301-4.651,13.021-14.883,9.301-24.184
								c-1.86-3.721-5.58-7.441-9.301-9.302l-9.302-1.859l1.86-9.302c3.721-15.813,10.231-30.694,18.603-43.716l5.581-8.371
								l8.371,5.581c6.511,3.72,14.882,1.86,19.532-3.721c6.511-4.65,7.441-13.952,3.721-20.463l-5.581-7.441l8.371-5.58
								c13.022-8.371,27.904-14.882,43.716-18.603l9.302-1.86l1.86,9.301c1.86,7.441,9.301,13.022,16.742,12.092
								c7.44,0.931,14.882-3.721,16.742-11.161l1.86-9.302l9.301,1.86c15.813,3.721,30.694,10.231,43.716,18.603l8.371,5.581
								l-6.511,8.371c-3.72,9.301,0.931,20.463,11.162,24.184c3.72,1.86,8.371,1.86,13.021,0l8.371-5.581l5.581,8.371
								c8.371,13.021,14.882,27.903,18.602,43.716l1.86,9.302h-10.231c-9.301,4.65-13.021,14.882-9.301,24.183
								c1.86,3.721,5.581,7.441,9.301,9.302l9.302,1.86l-1.86,9.301c-3.721,15.813-10.231,30.694-18.603,43.716l-5.58,8.371
								l-8.371-5.58c-9.302-3.721-20.463,0.93-24.184,11.161c-1.86,3.721-1.86,8.371,0,13.021l5.581,7.441l-8.371,5.58
								c-13.022,8.372-27.904,14.883-43.717,18.603L204.627,718.585z M186.025,678.59c13.022,0,25.114,6.511,31.625,17.672
								c8.371-1.859,15.812-5.58,23.253-9.301c-4.65-20.463,8.371-40.926,28.834-45.576c5.58-0.93,11.161-0.93,15.812,0
								c3.721-7.441,7.441-14.882,9.302-23.253c-17.673-11.162-22.323-34.415-11.161-52.087c2.79-4.65,6.511-8.371,11.161-11.162
								c-1.86-8.371-5.581-15.812-9.302-23.253c-20.462,4.65-40.925-8.371-45.576-28.834c-0.93-5.58-0.93-11.161,0-15.812
								c-7.44-3.721-14.882-7.441-23.253-9.302c-11.161,17.673-34.414,22.323-52.087,11.161c-4.65-2.79-8.371-6.511-11.161-11.161
								c-8.371,1.86-15.813,5.581-23.253,9.302c2.79,13.021-0.931,26.043-10.231,35.345c-9.302,9.301-22.323,13.951-34.415,10.231
								c-3.721,7.44-7.441,14.882-9.301,23.253c17.672,11.161,22.322,34.414,11.161,52.087c-2.79,4.65-6.511,8.371-11.161,11.161
								c1.859,8.371,5.58,15.813,9.301,23.253c13.021-2.79,26.044,0.931,35.345,10.231c9.302,9.302,13.021,22.323,10.231,34.415
								c7.441,3.721,14.882,7.441,23.253,9.301C160.911,685.101,173.003,678.59,186.025,678.59L186.025,678.59z"/>
						</g>
					</g>
					<g id="_Group_24">
						<rect x="176.724" y="550.232" fill="#5497DA" width="18.603" height="18.603"/>
					</g>
					<g id="_Group_25">
						<rect x="176.724" y="605.11" fill="#5497DA" width="18.603" height="18.603"/>
					</g>
					<g id="_Group_26">
						<rect x="204.627" y="577.206" fill="#5497DA" width="18.603" height="18.603"/>
					</g>
					<g id="_Group_27">
						<rect x="148.82" y="577.206" fill="#5497DA" width="18.603" height="18.603"/>
					</g>
				</g>
			</g>
			<g id="_Group_28">
				<g id="_Group_29">
					<rect x="66.039" y="225.619" fill="#5497DA" width="175.793" height="18.603"/>
				</g>
				<g id="_Group_30">
					<rect x="260.435" y="225.619" fill="#5497DA" width="93.013" height="18.603"/>
				</g>
				<g id="_Group_31">
					<rect x="66.039" y="261.894" fill="#5497DA" width="83.711" height="18.603"/>
				</g>
				<g id="_Group_32">
					<rect x="167.422" y="261.894" fill="#5497DA" width="147.891" height="18.603"/>
				</g>
				<g id="_Group_33">
					<rect x="66.039" y="299.099" fill="#5497DA" width="37.205" height="18.603"/>
				</g>
				<g id="_Group_34">
					<rect x="121.846" y="299.099" fill="#5497DA" width="111.615" height="18.603"/>
				</g>
				<g id="_Group_35">
					<rect x="251.134" y="299.099" fill="#5497DA" width="37.205" height="18.603"/>
				</g>
				<g id="_Group_36">
					<rect x="66.039" y="336.304" fill="#5497DA" width="130.217" height="18.603"/>
				</g>
				<g id="_Group_37">
					<rect x="213.929" y="336.304" fill="#5497DA" width="130.217" height="18.603"/>
				</g>
				<g id="_Group_38">
					<rect x="66.039" y="373.509" fill="#5497DA" width="74.409" height="18.603"/>
				</g>
				<g id="_Group_39">
					<rect x="159.051" y="373.509" fill="#5497DA" width="93.013" height="18.603"/>
				</g>
				<g id="_Group_40">
					<rect x="269.737" y="373.509" fill="#5497DA" width="46.506" height="18.603"/>
				</g>
				<g id="_Group_41">
					<rect x="66.039" y="410.714" fill="#5497DA" width="130.217" height="18.603"/>
				</g>
			</g>
		</g>
	</g>
</g>
</svg>
