<?xml version="1.0" encoding="utf-8"?>
<!-- Generator: Adobe Illustrator 16.0.0, SVG Export Plug-In . SVG Version: 6.00 Build 0)  -->
<!DOCTYPE svg PUBLIC "-//W3C//DTD SVG 1.1//EN" "http://www.w3.org/Graphics/SVG/1.1/DTD/svg11.dtd">
<svg version="1.1" id="Layer_1" xmlns="http://www.w3.org/2000/svg" xmlns:xlink="http://www.w3.org/1999/xlink" x="0px" y="0px"
	 width="595.279px" height="520.87px" viewBox="0 160.51 595.279 520.87" enable-background="new 0 160.51 595.279 520.87"
	 xml:space="preserve">
<title>Asset 47</title>
<g id="Layer_2">
	<g id="Layer_1-2">
		<polygon fill="#5497DA" points="548.774,513.958 46.506,513.958 46.506,197.715 427.858,197.715 427.858,216.317 65.109,216.317 
			65.109,495.355 530.171,495.355 530.171,216.317 502.268,216.317 502.268,197.715 548.774,197.715 		"/>
		<polygon fill="#5497DA" points="511.569,407.923 465.063,384.67 418.556,407.923 418.556,169.811 437.158,169.811 
			437.158,378.159 465.063,364.208 492.966,378.159 492.966,169.811 511.569,169.811 		"/>
		<path fill="#5497DA" d="M306.942,402.343H83.711V234.92h223.23V402.343z M102.314,383.74h186.025V253.522H102.314V383.74z"/>
		<rect x="325.543" y="234.92" fill="#5497DA" width="102.314" height="18.603"/>
		<rect x="325.543" y="272.125" fill="#5497DA" width="102.314" height="18.603"/>
		<rect x="325.543" y="309.33" fill="#5497DA" width="102.314" height="18.603"/>
		<rect x="325.543" y="346.535" fill="#5497DA" width="102.314" height="18.603"/>
		<rect x="325.543" y="383.74" fill="#5497DA" width="102.314" height="18.603"/>
		<rect x="83.711" y="420.945" fill="#5497DA" width="130.218" height="18.603"/>
		<rect x="232.531" y="420.945" fill="#5497DA" width="130.217" height="18.603"/>
		<rect x="381.351" y="420.945" fill="#5497DA" width="130.218" height="18.603"/>
		<rect x="83.711" y="458.15" fill="#5497DA" width="130.218" height="18.603"/>
		<rect x="232.531" y="458.15" fill="#5497DA" width="130.217" height="18.603"/>
		<rect x="381.351" y="458.15" fill="#5497DA" width="130.218" height="18.603"/>
		<g id="_Group_">
			<rect x="176.724" y="662.777" fill="#5497DA" width="241.832" height="18.603"/>
		</g>
		<g id="_Group_2">
			<path fill="#5497DA" d="M549.703,588.367H45.576C20.463,588.367,0,567.905,0,542.791V206.086
				c0-25.113,20.463-45.576,45.576-45.576l0,0h504.128c25.113,0,45.575,20.463,45.575,45.576v336.705
				C595.28,567.905,574.818,588.367,549.703,588.367z M45.576,179.112c-14.882,0-26.974,12.092-26.974,26.974v336.705
				c0,14.883,12.092,26.975,26.974,26.975h504.128c14.882,0,26.974-12.092,26.974-26.975V206.086
				c0-14.882-12.092-26.974-26.975-26.974H45.576z"/>
		</g>
		<g id="_Group_3">
			<rect x="27.904" y="532.561" fill="#5497DA" width="539.473" height="18.603"/>
		</g>
		<g id="_Group_4">
			<path fill="#5497DA" d="M393.443,681.38H201.837l33.484-111.614h125.567L393.443,681.38z M226.021,662.777h142.309l-22.323-74.41
				h-97.663L226.021,662.777z"/>
		</g>
	</g>
</g>
</svg>
