<svg xmlns="http://www.w3.org/2000/svg" viewBox="0 0 53.47 53.47"><defs><style>.cls-1{fill:#77ade0;}</style></defs><title>IconPack-1</title><g id="Layer_2" data-name="Layer 2"><g id="_8_-_Icons" data-name="8 - Icons"><path class="cls-1" d="M52.66,40.51H.81a.81.81,0,0,0-.81.81v2.43a4.06,4.06,0,0,0,4.05,4h16.1l-2,4.05H13a.81.81,0,1,0,0,1.62H40.51a.81.81,0,0,0,0-1.62H35.34l-2-4.05H49.42a4.06,4.06,0,0,0,4-4V41.32A.81.81,0,0,0,52.66,40.51ZM33.53,51.85H19.94l2-4.05h9.57Zm18.32-8.1a2.43,2.43,0,0,1-2.43,2.43H4.05a2.43,2.43,0,0,1-2.43-2.43V42.13H51.85Z"/><path class="cls-1" d="M49.42,0H4.05A4.06,4.06,0,0,0,0,4.05V25.66s0,.07,0,.1a1,1,0,0,0,0,.17.6.6,0,0,0,.09.15.36.36,0,0,0,0,.09l0,0a.65.65,0,0,0,.21.16s0,0,.06,0a.73.73,0,0,0,.33.08h0a.86.86,0,0,0,.27-.05l.11-.06a.41.41,0,0,0,.11-.07L10.6,18.7A3.21,3.21,0,0,0,15,18.23l2.9,1.47a3,3,0,0,0-.07.66,3.26,3.26,0,1,0,6.51,0,3.45,3.45,0,0,0-.16-1L35,12.45a3.19,3.19,0,0,0,2.21.89A3.25,3.25,0,0,0,40,11.71l12.42,3.46h.11l.11,0h.05a.76.76,0,0,0,.16,0l.15-.05.12-.08a.6.6,0,0,0,.12-.11,1,1,0,0,0,.08-.11.8.8,0,0,0,.08-.16s0,0,0,0,0-.07,0-.11,0-.07,0-.11V4.05A4.06,4.06,0,0,0,49.42,0ZM12.52,17.72a1.64,1.64,0,1,1,1.63-1.63A1.64,1.64,0,0,1,12.52,17.72ZM21,22a1.64,1.64,0,1,1,1.64-1.64A1.64,1.64,0,0,1,21,22ZM37.22,11.71a1.63,1.63,0,1,1,1.63-1.63A1.63,1.63,0,0,1,37.22,11.71Zm14.63,1.61L40.47,10.15v-.07a3.25,3.25,0,1,0-6.5,0,3.39,3.39,0,0,0,.17,1L23.28,18A3.24,3.24,0,0,0,21,17.11a3.2,3.2,0,0,0-2.45,1.15l-2.89-1.47a3.25,3.25,0,1,0-6.43-.7,3.3,3.3,0,0,0,.31,1.36L1.62,24V4.05A2.43,2.43,0,0,1,4.05,1.62H49.42a2.43,2.43,0,0,1,2.43,2.43Z"/><path class="cls-1" d="M.81,37.46a.81.81,0,0,0,.81-.81V30.17a.81.81,0,0,0-1.62,0v6.48A.81.81,0,0,0,.81,37.46Z"/><path class="cls-1" d="M8.1,36.65V26.1a.81.81,0,1,0-1.62,0V36.65a.81.81,0,0,0,1.62,0Z"/><path class="cls-1" d="M14.58,36.65V22.84a.81.81,0,0,0-1.62,0V36.65a.81.81,0,1,0,1.62,0Z"/><path class="cls-1" d="M21.06,36.65V26.91a.81.81,0,0,0-1.62,0v9.74a.81.81,0,1,0,1.62,0Z"/><path class="cls-1" d="M27.55,36.65V22.84a.81.81,0,1,0-1.62,0V36.65a.81.81,0,1,0,1.62,0Z"/><path class="cls-1" d="M34,36.65V18.77a.81.81,0,1,0-1.62,0V36.65a.81.81,0,1,0,1.62,0Z"/><path class="cls-1" d="M40.51,36.65V16.32a.81.81,0,0,0-1.62,0V36.65a.81.81,0,0,0,1.62,0Z"/><path class="cls-1" d="M47,36.65V18a.81.81,0,1,0-1.62,0v18.7a.81.81,0,0,0,1.62,0Z"/><path class="cls-1" d="M52.66,18.77a.81.81,0,0,0-.81.81V36.65a.81.81,0,1,0,1.62,0V19.58A.81.81,0,0,0,52.66,18.77Z"/></g></g></svg>