<svg xmlns="http://www.w3.org/2000/svg" viewBox="0 0 105.92 105.92"><defs><style>.cls-1{fill:#77ade0;}</style></defs><title>Asset 102</title><g id="Layer_2" data-name="Layer 2"><g id="_8_-_Icons" data-name="8 - Icons"><path class="cls-1" d="M105.92,105.92H0V0H105.92ZM3.42,102.51h99.09V3.42H3.42Z"/><rect class="cls-1" x="6.83" y="6.83" width="3.42" height="3.42"/><rect class="cls-1" x="13.67" y="6.83" width="3.42" height="3.42"/><rect class="cls-1" x="20.5" y="6.83" width="3.42" height="3.42"/><rect class="cls-1" x="1.71" y="13.67" width="102.51" height="3.42"/><path class="cls-1" d="M99.09,90.55H6.83V29H99.09ZM10.25,87.13H95.67V32.46H10.25Z"/><path class="cls-1" d="M92.26,56.38H47.84V39.29H92.26ZM51.25,53H88.84V42.71H51.25Z"/><rect class="cls-1" x="82" y="46.13" width="3.42" height="3.42"/><rect class="cls-1" x="75.17" y="46.13" width="3.42" height="3.42"/><rect class="cls-1" x="68.34" y="46.13" width="3.42" height="3.42"/><rect class="cls-1" x="61.5" y="46.13" width="3.42" height="3.42"/><rect class="cls-1" x="54.67" y="46.13" width="3.42" height="3.42"/><path class="cls-1" d="M92.26,80.3H47.84V63.21H92.26Zm-41-3.42H88.84V66.63H51.25Z"/><rect class="cls-1" x="82" y="70.05" width="3.42" height="3.42"/><rect class="cls-1" x="75.17" y="70.05" width="3.42" height="3.42"/><rect class="cls-1" x="68.34" y="70.05" width="3.42" height="3.42"/><rect class="cls-1" x="61.5" y="70.05" width="3.42" height="3.42"/><rect class="cls-1" x="54.67" y="70.05" width="3.42" height="3.42"/><path class="cls-1" d="M29,59.8A10.26,10.26,0,1,1,39.29,49.54,10.27,10.27,0,0,1,29,59.8Zm0-17.09a6.84,6.84,0,1,0,6.84,6.83A6.84,6.84,0,0,0,29,42.71Z"/><path class="cls-1" d="M41,80.3H17.08v-12a12,12,0,0,1,23.92,0ZM20.5,76.88H37.59V68.34a8.55,8.55,0,0,0-17.09,0Z"/><rect class="cls-1" x="27.33" y="63.21" width="3.42" height="3.42"/><rect class="cls-1" x="27.33" y="70.05" width="3.42" height="3.42"/></g></g></svg>