<svg xmlns="http://www.w3.org/2000/svg" viewBox="0 0 105.92 105.92"><defs><style>.cls-1{fill:#77ade0;}</style></defs><title>Asset 111</title><g id="Layer_2" data-name="Layer 2"><g id="_8_-_Icons" data-name="8 - Icons"><polygon class="cls-1" points="97.65 76.13 8.28 76.13 8.28 19.86 46.34 19.86 46.34 23.17 11.59 23.17 11.59 72.82 94.34 72.82 94.34 23.17 89.37 23.17 89.37 19.86 97.65 19.86 97.65 76.13"/><rect class="cls-1" x="14.9" y="26.48" width="3.31" height="3.31"/><rect class="cls-1" x="21.52" y="26.48" width="3.31" height="3.31"/><rect class="cls-1" x="28.14" y="26.48" width="3.31" height="3.31"/><rect class="cls-1" x="9.93" y="33.1" width="86.06" height="3.31"/><path class="cls-1" d="M91,69.51H14.9V39.72H91ZM18.21,66.2H87.72V43H18.21Z"/><path class="cls-1" d="M91,36.41H44.69V0H91ZM48,33.1H87.72V3.31H48Z"/><path class="cls-1" d="M53,62.89a8.28,8.28,0,1,1,8.28-8.27A8.28,8.28,0,0,1,53,62.89Zm0-13.24a5,5,0,1,0,5,5A5,5,0,0,0,53,49.65Z"/><path class="cls-1" d="M72.82,62.89a8.28,8.28,0,1,1,8.28-8.27A8.28,8.28,0,0,1,72.82,62.89Zm0-13.24a5,5,0,1,0,5,5A5,5,0,0,0,72.82,49.65Z"/><path class="cls-1" d="M33.1,62.89a8.28,8.28,0,1,1,8.28-8.27A8.28,8.28,0,0,1,33.1,62.89Zm0-13.24a5,5,0,1,0,5,5A5,5,0,0,0,33.1,49.65Z"/><rect class="cls-1" x="51.31" y="26.48" width="33.1" height="3.31"/><polygon class="cls-1" points="54.44 28.88 51.48 27.4 61.87 6.62 68.88 6.62 74.3 17.46 71.34 18.95 66.83 9.93 63.91 9.93 54.44 28.88"/><polygon class="cls-1" points="81.22 28.75 75.01 13.24 69.51 13.24 69.51 9.93 77.25 9.93 84.29 27.52 81.22 28.75"/><g id="_Group_" data-name="&lt;Group&gt;"><rect class="cls-1" x="31.45" y="102.61" width="43.03" height="3.31"/></g><g id="_Group_2" data-name="&lt;Group&gt;"><rect class="cls-1" x="4.97" y="79.3" width="95.99" height="3.31"/></g><g id="_Group_3" data-name="&lt;Group&gt;"><path class="cls-1" d="M70.08,105.92H35.84l6-19.86H64.12Zm-29.79-3.31H65.63l-4-13.24H44.26Z"/></g><path class="cls-1" d="M97.79,13.24H90.2v3.31h7.59a4.83,4.83,0,0,1,4.82,4.83V81.23a4.82,4.82,0,0,1-4.82,4.83H8.14a4.83,4.83,0,0,1-4.83-4.83V21.38a4.84,4.84,0,0,1,4.83-4.83H45.38V13.24H8.14A8.15,8.15,0,0,0,0,21.38V81.23a8.15,8.15,0,0,0,8.14,8.14H97.79a8.15,8.15,0,0,0,8.13-8.14V21.38A8.15,8.15,0,0,0,97.79,13.24Z"/></g></g></svg>